<svg width="320" height="255" viewBox="0 0 320 255" fill="none" xmlns="http://www.w3.org/2000/svg">
<path d="M0 0.732855C35.9667 0.636425 103.056 37.4544 127.154 51.9372C171.1 78.3476 271.913 -61.0705 302.5 67.5001C323.491 155.734 56.0787 146.997 61 237.5C63.2652 279.158 268.429 222.908 320 247.787" stroke="#03FFF2" stroke-opacity="0.5"/>
<path d="M294.896 243.936C294.848 247.176 292.304 248.64 289.568 249.024V251.04H287.288V249.168H287.24C285.368 249.096 283.856 248.712 282.128 247.776L283.52 244.656C284.168 245.016 285.728 245.448 287.288 245.544V242.136C286.712 241.92 286.16 241.8 285.92 241.704C283.496 240.864 281.672 239.304 282.008 236.376C282.344 233.592 284.864 232.368 287.288 232.104V230.136H289.568V232.08C291.32 232.176 292.88 232.536 294.08 233.304L292.712 236.376C292.16 236.04 290.696 235.608 289.568 235.608V238.944C292.28 239.688 294.944 240.6 294.896 243.936ZM289.568 242.76V245.448C290.696 245.232 291.248 244.8 291.272 244.056C291.32 243.312 290.528 243.024 289.568 242.76ZM287.288 238.392V235.728C286.04 235.944 285.728 236.376 285.704 237.144C285.704 237.792 286.304 238.176 287.288 238.392Z" fill="#03FFF2"/>
<path d="M204.896 150.936C204.848 154.176 202.304 155.64 199.568 156.024V158.04H197.288V156.168H197.24C195.368 156.096 193.856 155.712 192.128 154.776L193.52 151.656C194.168 152.016 195.728 152.448 197.288 152.544V149.136C196.712 148.92 196.16 148.8 195.92 148.704C193.496 147.864 191.672 146.304 192.008 143.376C192.344 140.592 194.864 139.368 197.288 139.104V137.136H199.568V139.08C201.32 139.176 202.88 139.536 204.08 140.304L202.712 143.376C202.16 143.04 200.696 142.608 199.568 142.608V145.944C202.28 146.688 204.944 147.6 204.896 150.936ZM199.568 149.76V152.448C200.696 152.232 201.248 151.8 201.272 151.056C201.32 150.312 200.528 150.024 199.568 149.76ZM197.288 145.392V142.728C196.04 142.944 195.728 143.376 195.704 144.144C195.704 144.792 196.304 145.176 197.288 145.392Z" fill="#03FFF2"/>
</svg>
