<svg width="1920" height="484" viewBox="0 0 1920 484" fill="none" xmlns="http://www.w3.org/2000/svg">
<path d="M-140 37.5C98.1667 37.3333 542.423 100.968 702 126C993 171.647 1335.95 -139.717 1538.5 82.5C1677.5 235 1116.91 300.077 1149.5 456.5C1164.5 528.5 1637.5 421.5 1979 464.5" stroke="#03FFF2" stroke-opacity="0.5" stroke-width="3"/>
<path d="M788.373 108.643C788.199 120.388 778.977 125.695 769.059 127.087V134.395H760.794V127.609H760.62C753.834 127.348 748.353 125.956 742.089 122.563L747.135 111.253C749.484 112.558 755.139 114.124 760.794 114.472V102.118C758.706 101.335 756.705 100.9 755.835 100.552C747.048 97.507 740.436 91.852 741.654 81.238C742.872 71.146 752.007 66.709 760.794 65.752V58.618H769.059V65.665C775.41 66.013 781.065 67.318 785.415 70.102L780.456 81.238C778.455 80.02 773.148 78.454 769.059 78.454V90.547C778.89 93.244 788.547 96.55 788.373 108.643ZM769.059 104.38V114.124C773.148 113.341 775.149 111.775 775.236 109.078C775.41 106.381 772.539 105.337 769.059 104.38ZM760.794 88.546V78.889C756.27 79.672 755.139 81.238 755.052 84.022C755.052 86.371 757.227 87.763 760.794 88.546Z" fill="#03FFF2"/>
<path d="M1290.01 337.955C1289.82 350.78 1279.75 356.575 1268.92 358.095V366.075H1259.89V358.665H1259.7C1252.29 358.38 1246.31 356.86 1239.47 353.155L1244.98 340.805C1247.54 342.23 1253.72 343.94 1259.89 344.32V330.83C1257.61 329.975 1255.43 329.5 1254.48 329.12C1244.88 325.795 1237.66 319.62 1238.99 308.03C1240.32 297.01 1250.3 292.165 1259.89 291.12V283.33H1268.92V291.025C1275.85 291.405 1282.03 292.83 1286.78 295.87L1281.36 308.03C1279.18 306.7 1273.38 304.99 1268.92 304.99V318.195C1279.65 321.14 1290.2 324.75 1290.01 337.955ZM1268.92 333.3V343.94C1273.38 343.085 1275.57 341.375 1275.66 338.43C1275.85 335.485 1272.72 334.345 1268.92 333.3ZM1259.89 316.01V305.465C1254.95 306.32 1253.72 308.03 1253.62 311.07C1253.62 313.635 1256 315.155 1259.89 316.01Z" fill="#03FFF2"/>
</svg>
