<svg width="1920" height="1546" viewBox="0 0 1920 1546" fill="none" xmlns="http://www.w3.org/2000/svg">
<path d="M-41.2538 0L-67.7327 11.6494L-78 0L-72.0558 8324H1996V133.438L1966.82 112.787L1898.73 158.325L1811.73 133.438L1690.14 164.15L1632.86 91.6064L1545.86 144.028L1516.14 112.787L1383.2 105.903L1320.52 144.028L1288.09 78.3684L1240 119.141L1208.12 85.2522L1123.28 48.186L1064.92 119.141L965.485 78.3684L917.39 40.2433L867.134 101.667L818.5 48.186L684.484 112.787L600.724 6.3542L458.062 48.186L412.13 90.5473L358.632 41.3023L283.518 48.186L236.504 0H186.789L114.918 25.9463L72.7676 0H-41.2538Z" fill="black"/>
</svg>
