<svg width="1920" height="1025" viewBox="0 0 1920 1025" fill="none" xmlns="http://www.w3.org/2000/svg">
<path d="M23.963 892L-12 861L-5.92175 -1441H1930V984.5L1837.81 1025L1760.82 967L1657.49 1015.5L1605.32 942.5H1532.38L1489.83 892L1432.09 954.5L1308.5 995.5L1225.94 868L1102.35 954.5L1058.28 892L1006.11 967L957.987 915.5L870.359 868L818.187 967L742.209 915.5L703.714 868L662.685 926L629.762 846L569.486 892L450.96 882.5L418.036 846L338.512 915.5L284.821 823L173.387 868L86.7715 832.5L23.963 892Z" fill="black"/>
</svg>
