<svg width="84" height="84" viewBox="0 0 84 84" fill="none" xmlns="http://www.w3.org/2000/svg">
<circle cx="42" cy="42" r="42" fill="white"/>
<path d="M62.4435 36.2126L46.4286 23.4451C46.1293 23.2065 45.7695 23.0569 45.3899 23.0133C45.0103 22.9697 44.6262 23.0338 44.281 23.1984C43.933 23.365 43.6389 23.6272 43.4326 23.9545C43.2263 24.2819 43.1163 24.6613 43.1152 25.0488V31.2166C21.0462 32.7175 19.0009 57.5329 19.0009 57.8001C18.9873 58.2698 19.1341 58.7299 19.4169 59.104C19.6997 59.4781 20.1015 59.7435 20.5553 59.8561C20.7123 59.9245 20.8772 59.9729 21.0462 60C21.4396 59.9992 21.8245 59.8843 22.1546 59.6692C22.4847 59.454 22.7461 59.1477 22.9074 58.787C23.112 58.3347 27.6935 48.5072 43.1152 47.726V53.8938C43.1163 54.2813 43.2263 54.6607 43.4326 54.988C43.6389 55.3154 43.933 55.5775 44.281 55.7442C44.6262 55.9088 45.0103 55.9729 45.3899 55.9293C45.7695 55.8857 46.1293 55.7361 46.4286 55.4975L62.4435 42.73C62.9287 42.3451 63.3208 41.8547 63.5904 41.2957C63.8599 40.7366 64 40.1234 64 39.5021C64 38.8809 63.8599 38.2677 63.5904 37.7086C63.3208 37.1495 62.9287 36.6592 62.4435 36.2743V36.2126Z" fill="#03FFF2"/>
</svg>
