<svg width="119" height="117" viewBox="0 0 119 117" fill="none" xmlns="http://www.w3.org/2000/svg">
<rect width="119" height="117" rx="40" fill="white"/>
<path d="M34 87H86" stroke="black" stroke-width="5" stroke-linecap="round"/>
<path d="M62.5 31C62.5 29.6193 61.3807 28.5 60 28.5C58.6193 28.5 57.5 29.6193 57.5 31L62.5 31ZM58.2322 73.7678C59.2085 74.7441 60.7915 74.7441 61.7678 73.7678L77.6777 57.8579C78.654 56.8816 78.654 55.2986 77.6777 54.3223C76.7014 53.346 75.1184 53.346 74.1421 54.3223L60 68.4645L45.8579 54.3223C44.8816 53.346 43.2986 53.346 42.3223 54.3223C41.346 55.2986 41.346 56.8816 42.3223 57.8579L58.2322 73.7678ZM57.5 31L57.5 72L62.5 72L62.5 31L57.5 31Z" fill="black"/>
</svg>
