<svg width="299" height="48" viewBox="0 0 299 48" fill="none" xmlns="http://www.w3.org/2000/svg">
<g clip-path="url(#clip0_5_326)">
<path opacity="0.701" fill-rule="evenodd" clip-rule="evenodd" d="M8.40948 -0.168945C8.65866 -0.168945 8.9078 -0.168945 9.15698 -0.168945C8.92896 2.07885 8.74208 4.33237 8.59636 6.59162C8.1603 6.986 7.72429 7.38034 7.28823 7.77472C4.79969 7.9436 2.30801 7.99995 -0.186768 7.94373C-0.186768 7.83107 -0.186768 7.71837 -0.186768 7.6057C5.04663 7.1542 7.91202 4.56264 8.40948 -0.168945Z" fill="#FEFFFE"/>
<path opacity="0.918" fill-rule="evenodd" clip-rule="evenodd" d="M11.7732 -0.168945C12.0224 -0.168945 12.2716 -0.168945 12.5207 -0.168945C12.4186 1.46911 12.9169 2.9339 14.0157 4.22542C26.6456 -0.60082 37.4222 1.6527 46.3451 10.986C52.7661 19.7399 53.0154 28.6413 47.0926 37.6902C42.5183 43.2771 36.4759 46.6574 28.9657 47.8311C26.7232 47.8311 24.4807 47.8311 22.2382 47.8311C6.57725 44.419 -0.710877 35.4051 0.373857 20.7888C0.95468 17.6331 2.2628 14.7599 4.29823 12.1691C2.89557 11.4968 1.40057 11.2151 -0.186768 11.324C-0.186768 11.0986 -0.186768 10.8733 -0.186768 10.648C2.46269 10.518 5.07892 10.687 7.66198 11.155C8.111 11.4601 8.42249 11.8544 8.59636 12.3381C8.69499 14.151 8.88186 15.9538 9.15698 17.7465C9.11654 18.0649 8.99197 18.3466 8.78323 18.5916C9.77217 18.7598 10.7689 18.8161 11.7732 18.7606C10.1625 11.8794 13.1525 9.17517 20.7432 10.648C20.6474 9.87303 20.772 9.14062 21.117 8.45077C33.0778 6.87752 40.7396 11.3282 44.1026 21.8029C44.8243 33.5467 38.7199 40.1947 25.7889 41.7465C14.2581 40.7825 7.96663 35.0925 6.91448 24.6761C7.10151 22.4219 7.59986 20.2247 8.40948 18.0846C8.15619 17.0555 7.84475 16.0414 7.47511 15.0423C3.0692 22.1397 3.31837 29.1256 8.22261 36.0001C15.942 44.1253 25.2235 45.9844 36.067 41.5775C46.0435 35.5799 49.0955 27.4109 45.2239 17.0705C40.6484 9.05655 33.3602 5.28189 23.3595 5.74655C21.4099 5.93378 19.5411 6.38451 17.7532 7.09866C18.8851 7.28086 20.0064 7.50622 21.117 7.77472C18.6253 8.00008 16.1337 8.00008 13.642 7.77472C12.81 7.35985 12.2494 6.74011 11.9601 5.91556C11.7734 3.8905 11.7111 1.86235 11.7732 -0.168945ZM24.4807 14.0282C25.4774 14.0282 26.4741 14.0282 27.4707 14.0282C27.4707 14.817 27.4707 15.6057 27.4707 16.3944C30.4693 16.5005 32.2135 17.8527 32.7032 20.4508C31.582 20.4508 30.4607 20.4508 29.3395 20.4508C28.7169 18.9729 27.4711 18.2969 25.602 18.4226C24.4068 18.4637 23.2855 18.7454 22.2382 19.2677C21.2416 20.2818 21.2416 21.2958 22.2382 22.3099C24.8389 22.9089 27.4551 23.4723 30.087 24.0001C33.4107 25.3395 34.345 27.5367 32.8901 30.5916C31.3941 32.254 29.4631 33.1554 27.097 33.2958C27.0075 33.9607 27.1321 34.5807 27.4707 35.155C26.4818 35.323 25.4851 35.3794 24.4807 35.324C24.4807 34.648 24.4807 33.9719 24.4807 33.2958C21.5192 33.1149 19.3391 31.8755 17.9401 29.5775C17.7557 29.0252 17.6934 28.4618 17.7532 27.8874C18.7499 27.8874 19.7466 27.8874 20.7432 27.8874C20.7032 28.6997 21.077 29.3194 21.8645 29.7465C24.2875 31.1706 26.7791 31.2832 29.3395 30.0846C30.7849 28.9292 30.7849 27.8025 29.3395 26.7043C26.5107 25.9206 23.6453 25.2446 20.7432 24.6761C18.2195 23.0388 17.6589 20.9543 19.0614 18.4226C20.473 17.1928 22.1548 16.4604 24.107 16.2254C24.452 15.5356 24.5766 14.8032 24.4807 14.0282Z" fill="#FEFFFE"/>
<path opacity="0.851" fill-rule="evenodd" clip-rule="evenodd" d="M298.813 14.0281C298.813 14.7042 298.813 15.3802 298.813 16.0563C297.006 17.8432 295.199 17.8432 293.394 16.0563C293.033 13.001 294.466 11.9306 297.692 12.845C298.116 13.2321 298.49 13.6264 298.813 14.0281Z" fill="#FEFFFE"/>
<path opacity="0.891" fill-rule="evenodd" clip-rule="evenodd" d="M240.134 12.676C241.754 12.676 243.374 12.676 244.993 12.676C244.931 15.27 244.993 17.8616 245.18 20.4507C248.272 18.6382 251.325 18.6945 254.337 20.6197C257.1 24.3855 257.287 28.2728 254.897 32.2817C252.8 34.3426 250.184 35.3567 247.049 35.3239C244.726 35.0545 242.421 34.7165 240.134 34.3098C240.134 27.0986 240.134 19.8873 240.134 12.676ZM247.236 22.8169C250.433 22.6598 251.928 24.0682 251.721 27.0422C251.539 30.8717 249.42 32.2802 245.367 31.2676C244.932 28.9094 244.869 26.5432 245.18 24.169C245.857 23.6697 246.542 23.219 247.236 22.8169Z" fill="#FEFFFE"/>
<path opacity="0.894" fill-rule="evenodd" clip-rule="evenodd" d="M70.8257 14.0283C74.0025 13.8369 77.117 14.1186 80.1694 14.8733C80.8134 15.0502 81.3116 15.3882 81.6644 15.8874C81.3108 16.9711 80.7502 17.9289 79.9825 18.7606C76.8628 17.3399 73.686 17.1709 70.4519 18.2536C66.4797 21.9007 66.1059 25.8443 69.3307 30.0846C71.4719 31.4402 73.8388 31.8908 76.4319 31.4367C76.7989 28.818 76.9234 26.1701 76.8057 23.493C78.4251 23.493 80.0449 23.493 81.6644 23.493C81.6644 27.0987 81.6644 30.7043 81.6644 34.3099C77.4321 35.3815 73.1963 35.4379 68.9569 34.479C64.2439 32.6023 62.0014 29.3347 62.2294 24.6761C62.303 19.2607 65.1682 15.7114 70.8257 14.0283Z" fill="#FEFFFE"/>
<path opacity="0.893" fill-rule="evenodd" clip-rule="evenodd" d="M197.153 14.0281C199.026 13.972 200.895 14.0283 202.759 14.1971C203.992 14.3616 205.113 14.756 206.123 15.3802C205.806 16.5325 205.245 17.5466 204.441 18.4224C200.818 16.7802 197.578 17.2309 194.724 19.7745C192.748 23.4578 193.059 26.9508 195.658 30.2534C198.67 31.934 201.784 32.0467 205.002 30.5914C205.376 31.7181 205.749 32.8448 206.123 33.9717C201.432 35.84 196.823 35.671 192.294 33.4647C188.233 29.6363 187.174 25.1856 189.117 20.1126C190.748 16.8864 193.427 14.8583 197.153 14.0281Z" fill="#FEFFFE"/>
<path opacity="0.875" fill-rule="evenodd" clip-rule="evenodd" d="M122.777 15.3804C124.023 15.3804 125.269 15.3804 126.514 15.3804C126.514 16.7325 126.514 18.0846 126.514 19.4367C127.76 19.4367 129.006 19.4367 130.252 19.4367C130.252 20.5635 130.252 21.6902 130.252 22.817C129.006 22.817 127.76 22.817 126.514 22.817C126.452 25.6361 126.514 28.453 126.701 31.2677C127.844 31.589 129.027 31.7017 130.252 31.6057C130.252 32.7325 130.252 33.8594 130.252 34.986C127.162 35.8835 124.483 35.32 122.216 33.2959C121.683 29.8296 121.496 26.3366 121.656 22.817C120.784 22.817 119.911 22.817 119.039 22.817C119.039 21.6902 119.039 20.5635 119.039 19.4367C120.036 19.4367 121.033 19.4367 122.029 19.4367C122.159 18.0654 122.408 16.7133 122.777 15.3804Z" fill="#FEFFFE"/>
<path opacity="0.88" fill-rule="evenodd" clip-rule="evenodd" d="M110.443 19.0986C112.429 19.0412 114.36 19.2666 116.236 19.7746C116.496 20.9585 116.309 22.0852 115.676 23.1549C114.08 22.5562 112.46 22.4435 110.817 22.8169C109.866 23.4564 109.866 24.0761 110.817 24.676C113.245 25.182 115.301 26.2524 116.984 27.8873C118.101 32.7434 115.858 35.2222 110.256 35.3239C108.794 35.2255 107.361 35.0004 105.958 34.6479C105.539 33.4014 105.602 32.1619 106.145 30.9295C108.064 31.7108 109.995 31.8798 111.938 31.4366C112.935 30.7605 112.935 30.0845 111.938 29.4084C110.12 28.8612 108.375 28.1851 106.706 27.3803C104.18 23.2482 105.426 20.4877 110.443 19.0986Z" fill="#FEFFFE"/>
<path opacity="0.879" fill-rule="evenodd" clip-rule="evenodd" d="M138.101 19.0986C139.863 19.1007 141.607 19.2697 143.333 19.6057C145.342 20.2953 146.526 21.591 146.884 23.493C147.133 27.2113 147.133 30.9296 146.884 34.6479C145.861 35.0231 144.802 35.0796 143.707 34.8169C143.462 34.3143 143.088 33.9202 142.586 33.6338C139.089 36.0115 135.788 35.7864 132.681 32.9578C131.234 29.0968 132.667 26.6743 136.979 25.6902C138.719 25.5214 140.463 25.4651 142.212 25.5212C142.485 24.0385 141.862 23.0807 140.343 22.6479C138.277 22.4692 136.284 22.7509 134.363 23.493C133.743 22.3877 133.618 21.261 133.989 20.1127C135.396 19.736 136.766 19.3979 138.101 19.0986ZM138.848 28.2254C139.969 28.2254 141.091 28.2254 142.212 28.2254C142.373 31.0352 140.878 32.2182 137.727 31.7747C136.5 30.137 136.873 28.9539 138.848 28.2254Z" fill="#FEFFFE"/>
<path opacity="0.897" fill-rule="evenodd" clip-rule="evenodd" d="M175.102 19.0986C183.761 19.103 187.063 22.934 185.006 30.5916C182.355 34.7733 178.431 36.1816 173.233 34.8169C169.137 32.9869 167.456 30.001 168.187 25.8592C168.896 22.2333 171.201 19.9798 175.102 19.0986ZM176.597 22.4789C179.562 22.8737 180.933 24.4511 180.708 27.2113C180.375 31.5302 178.132 32.657 173.981 30.5916C172.714 28.4635 172.651 26.3226 173.794 24.1691C174.509 23.2292 175.443 22.6658 176.597 22.4789Z" fill="#FEFFFE"/>
<path opacity="0.891" fill-rule="evenodd" clip-rule="evenodd" d="M214.719 19.0985C221.624 18.9228 224.614 21.9651 223.689 28.2253C220.076 28.2253 216.464 28.2253 212.851 28.2253C212.799 29.7674 213.546 30.8378 215.093 31.4365C217.718 31.6473 220.334 31.5909 222.942 31.2675C222.858 32.1968 222.982 33.0982 223.316 33.9717C219.251 35.672 215.14 35.7285 210.982 34.1408C208.709 32.4266 207.712 30.2295 207.992 27.5492C207.779 23.0769 210.021 20.26 214.719 19.0985ZM214.719 22.4788C217.585 21.9191 218.955 22.9332 218.831 25.521C216.838 25.521 214.844 25.521 212.851 25.521C212.85 24.1534 213.473 23.1394 214.719 22.4788Z" fill="#FEFFFE"/>
<path opacity="0.856" fill-rule="evenodd" clip-rule="evenodd" d="M234.902 19.0986C235.774 19.0986 236.646 19.0986 237.518 19.0986C237.359 20.5604 237.234 22.0252 237.144 23.493C235.093 23.0362 233.411 23.5995 232.099 25.1831C231.912 28.4488 231.85 31.7164 231.912 34.986C230.317 35.0864 228.76 34.9738 227.24 34.6479C227.053 29.5788 226.991 24.5083 227.053 19.4367C228.323 19.3284 229.569 19.4411 230.791 19.7747C231.048 20.4318 231.235 21.1079 231.351 21.8029C232.159 20.4491 233.343 19.5477 234.902 19.0986Z" fill="#FEFFFE"/>
<path opacity="0.891" fill-rule="evenodd" clip-rule="evenodd" d="M265.175 19.0986C267.225 19.0525 269.219 19.3342 271.155 19.9437C272.09 20.3381 272.775 20.9578 273.211 21.8028C273.75 26.1721 273.937 30.5665 273.772 34.9859C272.644 35.0417 271.523 34.9853 270.408 34.8169C270.136 34.344 269.949 33.837 269.847 33.2958C267.033 35.588 263.98 35.8699 260.69 34.1409C258.233 31.5833 258.357 29.1044 261.064 26.7043C263.666 25.6331 266.407 25.2388 269.287 25.5212C269.375 23.9965 268.628 23.0387 267.044 22.6479C265.036 22.5093 263.105 22.791 261.251 23.493C260.773 22.4043 260.462 21.2776 260.317 20.1127C261.972 19.7412 263.592 19.4032 265.175 19.0986ZM265.923 28.2254C267.044 28.2254 268.165 28.2254 269.287 28.2254C269.185 31.1335 267.566 32.2603 264.428 31.6057C263.278 29.8565 263.777 28.7298 265.923 28.2254Z" fill="#FEFFFE"/>
<path opacity="0.882" fill-rule="evenodd" clip-rule="evenodd" d="M282.368 19.0986C284.354 19.0412 286.285 19.2666 288.161 19.7746C288.479 20.9753 288.292 22.102 287.601 23.1549C286.014 22.4984 284.394 22.3858 282.742 22.8169C282.271 23.4432 282.271 24.0629 282.742 24.676C284.547 25.2204 286.291 25.8965 287.974 26.7042C290.099 29.3599 289.85 31.8387 287.227 34.1408C284.199 35.5108 281.084 35.6799 277.883 34.6479C277.527 33.4104 277.59 32.1709 278.07 30.9295C279.996 31.6835 281.927 31.8525 283.863 31.4366C284.503 31.0535 284.689 30.5465 284.424 29.9155C282.826 29.0564 281.144 28.324 279.378 27.7183C276.4 25.2596 276.4 22.7808 279.378 20.2817C280.371 19.7821 281.368 19.3877 282.368 19.0986Z" fill="#FEFFFE"/>
<path opacity="0.866" fill-rule="evenodd" clip-rule="evenodd" d="M86.1494 19.4365C87.7688 19.4365 89.3887 19.4365 91.0081 19.4365C90.9457 23.0439 91.0081 26.6495 91.195 30.2534C91.4406 31.33 92.1881 31.8934 93.4375 31.9436C94.8032 31.6071 95.9244 30.931 96.8013 29.9154C96.9881 26.4242 97.0502 22.9313 96.9881 19.4365C98.6076 19.4365 100.227 19.4365 101.847 19.4365C101.847 24.6196 101.847 29.8027 101.847 34.9858C100.719 35.0416 99.5977 34.9851 98.4831 34.8168C98.1243 34.3371 97.813 33.8301 97.5488 33.2957C94.1581 35.9739 90.7944 35.9739 87.4575 33.2957C86.8737 32.465 86.5 31.5636 86.3363 30.5915C86.1494 26.8748 86.087 23.1565 86.1494 19.4365Z" fill="#FEFFFE"/>
<path opacity="0.878" fill-rule="evenodd" clip-rule="evenodd" d="M149.313 19.4367C151.075 19.3263 152.819 19.439 154.546 19.7748C155.673 23.2299 156.981 26.6102 158.47 29.9156C159.818 26.596 160.939 23.2157 161.834 19.7748C163.497 19.3353 165.179 19.3353 166.879 19.7748C165.683 23.3017 164.375 26.7946 162.955 30.2536C162.289 31.8523 161.479 33.3734 160.526 34.817C158.906 35.0425 157.286 35.0425 155.667 34.817C153.075 29.8693 150.957 24.7426 149.313 19.4367Z" fill="#FEFFFE"/>
<path opacity="0.857" fill-rule="evenodd" clip-rule="evenodd" d="M291.338 19.4365C293.705 19.4365 296.072 19.4365 298.439 19.4365C298.439 24.6196 298.439 29.8027 298.439 34.9858C296.82 34.9858 295.2 34.9858 293.581 34.9858C293.581 30.9295 293.581 26.8731 293.581 22.8168C292.833 22.8168 292.086 22.8168 291.338 22.8168C291.338 21.6901 291.338 20.5633 291.338 19.4365Z" fill="#FEFFFE"/>
</g>
<defs>
<clipPath id="clip0_5_326">
<rect width="299" height="48" fill="white"/>
</clipPath>
</defs>
</svg>
