<svg width="26" height="26" viewBox="0 0 26 26" fill="none" xmlns="http://www.w3.org/2000/svg">
<path d="M12.7706 0.65625C19.6768 0.65625 25.3643 6.34375 25.3643 13.25C25.3643 20.207 19.6768 25.8438 12.7706 25.8438C5.81356 25.8438 0.176844 20.207 0.176844 13.25C0.176844 6.34375 5.81356 0.65625 12.7706 0.65625ZM17.8487 19.1914C18.255 19.1914 18.6104 18.8867 18.6104 18.4297C18.6104 17.9727 18.4581 17.7695 18.1534 17.5664C14.4972 15.4336 10.2823 15.332 6.11825 16.2461C5.712 16.3477 5.40731 16.6016 5.40731 17.1094C5.40731 17.5156 5.712 17.9219 6.21981 17.9219C6.37216 17.9219 6.62606 17.8203 6.82919 17.7695C10.4854 17.0586 14.1417 17.1094 17.3409 19.0391C17.4932 19.1406 17.6456 19.1914 17.8487 19.1914ZM19.2198 15.8906C19.7784 15.8906 20.1847 15.4336 20.2354 14.875C20.2354 14.4688 20.0323 14.1133 19.6261 13.9102C17.1378 12.3867 13.9386 11.5742 10.6378 11.5742C8.55575 11.5742 7.08309 11.8789 5.66122 12.2852C5.15341 12.4375 4.8995 12.793 4.8995 13.3008C4.8995 13.8594 5.35653 14.3164 5.86434 14.3164C6.11825 14.3164 6.21981 14.2148 6.47372 14.1641C10.6886 13.0469 15.4112 13.8086 18.6104 15.6875C18.7628 15.7383 18.9659 15.8906 19.2198 15.8906ZM20.794 12.0312C21.4034 12.0312 21.962 11.5234 21.962 10.8125C21.962 10.2031 21.7081 9.89844 21.3018 9.69531C18.5089 8.01953 14.5987 7.25781 10.8917 7.25781C8.70809 7.25781 6.72762 7.51172 4.95028 8.01953C4.49325 8.17188 4.03622 8.52734 4.03622 9.23828C4.03622 9.89844 4.54403 10.457 5.20419 10.457C5.45809 10.457 5.712 10.3555 5.86434 10.3047C10.0792 9.13672 16.5284 9.64453 20.1339 11.8281C20.3878 11.9297 20.5401 12.0312 20.794 12.0312Z" fill="#03FFF2"/>
</svg>
