<svg width="24" height="24" viewBox="0 0 24 24" fill="none" xmlns="http://www.w3.org/2000/svg">
<path d="M21.793 0.875C22.6562 0.875 23.418 1.63672 23.418 2.55078V22C23.418 22.9141 22.6562 23.625 21.793 23.625H2.24219C1.37891 23.625 0.667969 22.9141 0.667969 22V2.55078C0.667969 1.63672 1.37891 0.875 2.24219 0.875H21.793ZM7.52344 20.375V9.55859H4.17188V20.375H7.52344ZM5.84766 8.03516C6.91406 8.03516 7.77734 7.17188 7.77734 6.10547C7.77734 5.03906 6.91406 4.125 5.84766 4.125C4.73047 4.125 3.86719 5.03906 3.86719 6.10547C3.86719 7.17188 4.73047 8.03516 5.84766 8.03516ZM20.168 20.375V14.4336C20.168 11.5391 19.5078 9.25391 16.1055 9.25391C14.4805 9.25391 13.3633 10.168 12.9062 11.0312H12.8555V9.55859H9.65625V20.375H13.0078V15.043C13.0078 13.6211 13.2617 12.25 15.0391 12.25C16.7656 12.25 16.7656 13.875 16.7656 15.0938V20.375H20.168Z" fill="#03FFF2"/>
</svg>
