<svg width="27" height="22" viewBox="0 0 27 22" fill="none" xmlns="http://www.w3.org/2000/svg">
<path d="M23.9867 5.96875C23.9867 6.22266 23.9867 6.42578 23.9867 6.67969C23.9867 13.7383 18.6547 21.8125 8.85391 21.8125C5.80703 21.8125 3.01406 20.9492 0.678125 19.4258C1.08438 19.4766 1.49063 19.5273 1.94766 19.5273C4.43594 19.5273 6.72109 18.6641 8.54922 17.2422C6.21328 17.1914 4.23281 15.668 3.57266 13.5352C3.92813 13.5859 4.23281 13.6367 4.58828 13.6367C5.04531 13.6367 5.55313 13.5352 5.95938 13.4336C3.52188 12.9258 1.69375 10.793 1.69375 8.20312V8.15234C2.40469 8.55859 3.26797 8.76172 4.13125 8.8125C2.65859 7.84766 1.74453 6.22266 1.74453 4.39453C1.74453 3.37891 1.99844 2.46484 2.45547 1.70312C5.09609 4.90234 9.05703 7.03516 13.475 7.28906C13.3734 6.88281 13.3227 6.47656 13.3227 6.07031C13.3227 3.125 15.7094 0.738281 18.6547 0.738281C20.1781 0.738281 21.5492 1.34766 22.5648 2.41406C23.7328 2.16016 24.9008 1.70312 25.9164 1.09375C25.5102 2.36328 24.6977 3.37891 23.5805 4.03906C24.6469 3.9375 25.7133 3.63281 26.6273 3.22656C25.9164 4.29297 25.0023 5.20703 23.9867 5.96875Z" fill="#03FFF2"/>
</svg>
