<svg width="24" height="27" viewBox="0 0 24 27" fill="none" xmlns="http://www.w3.org/2000/svg">
<path d="M23.168 10.9141H23.1172C20.7812 10.9141 18.6484 10.2031 16.9219 8.93359V18.0234C16.9219 22.5938 13.2148 26.25 8.64453 26.25C4.07422 26.25 0.417969 22.5938 0.417969 18.0234C0.417969 13.4531 4.07422 9.74609 8.64453 9.74609C9.05078 9.74609 9.40625 9.79688 9.8125 9.84766V14.418C9.40625 14.2656 9.05078 14.2148 8.64453 14.2148C6.5625 14.2148 4.83594 15.9414 4.83594 18.0234C4.83594 20.1055 6.5625 21.832 8.64453 21.832C10.7266 21.832 12.4531 20.1055 12.4531 18.0234V0.25H16.9219C16.9219 0.300781 16.9219 0.300781 16.9219 0.351562C16.9219 0.707031 16.9219 1.0625 17.0234 1.41797C17.3281 3.09375 18.3438 4.56641 19.7656 5.48047C20.7305 6.14062 21.8984 6.49609 23.1172 6.49609C23.1172 6.49609 23.1172 6.49609 23.168 6.49609V10.9141Z" fill="#03FFF2"/>
</svg>
