<svg width="23" height="24" viewBox="0 0 23 24" fill="none" xmlns="http://www.w3.org/2000/svg">
<path d="M11.543 6.41016C14.7422 6.41016 17.3828 9.05078 17.3828 12.25C17.3828 15.5 14.7422 18.0898 11.543 18.0898C8.29297 18.0898 5.70312 15.5 5.70312 12.25C5.70312 9.05078 8.29297 6.41016 11.543 6.41016ZM11.543 16.0586C13.625 16.0586 15.3008 14.3828 15.3008 12.25C15.3008 10.168 13.625 8.49219 11.543 8.49219C9.41016 8.49219 7.73438 10.168 7.73438 12.25C7.73438 14.3828 9.46094 16.0586 11.543 16.0586ZM18.957 6.20703C18.957 6.96875 18.3477 7.57812 17.5859 7.57812C16.8242 7.57812 16.2148 6.96875 16.2148 6.20703C16.2148 5.44531 16.8242 4.83594 17.5859 4.83594C18.3477 4.83594 18.957 5.44531 18.957 6.20703ZM22.8164 7.57812C22.918 9.45703 22.918 15.0938 22.8164 16.9727C22.7148 18.8008 22.3086 20.375 20.9883 21.7461C19.668 23.0664 18.043 23.4727 16.2148 23.5742C14.3359 23.6758 8.69922 23.6758 6.82031 23.5742C4.99219 23.4727 3.41797 23.0664 2.04688 21.7461C0.726562 20.375 0.320312 18.8008 0.21875 16.9727C0.117188 15.0938 0.117188 9.45703 0.21875 7.57812C0.320312 5.75 0.726562 4.125 2.04688 2.80469C3.41797 1.48438 4.99219 1.07812 6.82031 0.976562C8.69922 0.875 14.3359 0.875 16.2148 0.976562C18.043 1.07812 19.668 1.48438 20.9883 2.80469C22.3086 4.125 22.7148 5.75 22.8164 7.57812ZM20.3789 18.9531C20.9883 17.4805 20.8359 13.9258 20.8359 12.25C20.8359 10.625 20.9883 7.07031 20.3789 5.54688C19.9727 4.58203 19.2109 3.76953 18.2461 3.41406C16.7227 2.80469 13.168 2.95703 11.543 2.95703C9.86719 2.95703 6.3125 2.80469 4.83984 3.41406C3.82422 3.82031 3.0625 4.58203 2.65625 5.54688C2.04688 7.07031 2.19922 10.625 2.19922 12.25C2.19922 13.9258 2.04688 17.4805 2.65625 18.9531C3.0625 19.9688 3.82422 20.7305 4.83984 21.1367C6.3125 21.7461 9.86719 21.5938 11.543 21.5938C13.168 21.5938 16.7227 21.7461 18.2461 21.1367C19.2109 20.7305 20.0234 19.9688 20.3789 18.9531Z" fill="#03FFF2"/>
</svg>
