<svg width="23" height="27" viewBox="0 0 23 27" fill="none" xmlns="http://www.w3.org/2000/svg">
<path d="M13.6665 25.082C13.4126 26.0469 12.397 26.25 11.4829 26.25C10.5181 26.25 9.50244 26.0469 9.24854 25.082C8.84229 23.6602 8.23291 20.0039 8.23291 18.3281C8.23291 16.5508 9.80713 16.0938 11.4829 16.0938C13.1079 16.0938 14.7329 16.5508 14.7329 18.3281C14.7329 20.0039 14.0728 23.6094 13.6665 25.082ZM8.02979 14.9258C8.18213 15.0781 8.18213 15.2812 8.02979 15.3828C7.52197 15.7383 7.1665 16.1953 6.96338 16.7031C6.86182 16.8555 6.60791 16.9062 6.45557 16.7539C5.03369 15.4336 4.17041 13.5547 4.17041 11.4219C4.17041 7.35938 7.52197 4.00781 11.686 4.16016C15.5454 4.26172 18.6938 7.41016 18.7446 11.2695C18.7954 13.4531 17.9321 15.3828 16.4595 16.7539C16.3071 16.9062 16.0532 16.8555 15.9517 16.7031C15.7485 16.1953 15.3931 15.7383 14.8853 15.3828C14.7329 15.2812 14.7329 15.0781 14.8853 14.9258C15.7485 14.0625 16.3579 12.793 16.3579 11.4219C16.3579 8.67969 14.022 6.44531 11.2798 6.59766C8.74072 6.64844 6.70947 8.73047 6.60791 11.2188C6.50635 12.6914 7.11572 14.0117 8.02979 14.9258ZM11.4829 0.25C17.729 0.25 22.8579 5.37891 22.8579 11.625C22.8579 16.2461 20.1665 20.0547 16.4595 21.8828C16.2056 21.9844 15.9517 21.7812 16.0024 21.5781C16.1548 20.7148 16.2563 19.8516 16.3071 19.1406C18.7446 17.5664 20.4204 14.7734 20.4204 11.625C20.4204 6.69922 16.3579 2.6875 11.4321 2.73828C6.55713 2.73828 2.54541 6.69922 2.54541 11.5742C2.49463 14.7227 4.06885 17.4648 6.50635 19.0898C6.55713 19.1406 6.60791 19.1914 6.60791 19.293C6.65869 20.0039 6.76025 20.7656 6.9126 21.5781C6.96338 21.7812 6.70947 21.9844 6.45557 21.8828C2.74854 20.0547 0.10791 16.1953 0.10791 11.625C0.10791 5.37891 5.18604 0.25 11.4829 0.25ZM11.4829 8.375C13.2603 8.375 14.7329 9.84766 14.7329 11.625C14.7329 13.4531 13.2603 14.875 11.4829 14.875C9.65479 14.875 8.23291 13.4531 8.23291 11.625C8.23291 9.84766 9.65479 8.375 11.4829 8.375Z" fill="#03FFF2"/>
</svg>
