<svg width="29" height="20" viewBox="0 0 29 20" fill="none" xmlns="http://www.w3.org/2000/svg">
<path d="M27.5672 3.59766C28.1766 5.73047 28.1766 10.3008 28.1766 10.3008C28.1766 10.3008 28.1766 14.8203 27.5672 17.0039C27.2625 18.2227 26.2977 19.1367 25.1297 19.4414C22.9461 20 14.3133 20 14.3133 20C14.3133 20 5.62969 20 3.44609 19.4414C2.27813 19.1367 1.31328 18.2227 1.00859 17.0039C0.39922 14.8203 0.39922 10.3008 0.39922 10.3008C0.39922 10.3008 0.39922 5.73047 1.00859 3.59766C1.31328 2.37891 2.27813 1.41406 3.44609 1.10938C5.62969 0.5 14.3133 0.5 14.3133 0.5C14.3133 0.5 22.9461 0.5 25.1297 1.10938C26.2977 1.41406 27.2625 2.37891 27.5672 3.59766ZM11.4695 14.4141L18.6805 10.3008L11.4695 6.1875V14.4141Z" fill="#03FFF2"/>
</svg>
